<svg width="194" height="32" viewBox="0 0 194 32" fill="none" xmlns="http://www.w3.org/2000/svg">
<path d="M184.373 31.5584V30.7168L189.822 10.3723H187.739C187.066 10.3723 186.554 10.5617 186.203 10.9404C185.853 11.3191 185.614 11.8941 185.488 12.6655C185.362 13.437 185.299 14.4118 185.299 15.5899H184.499V9.53076H193.083V10.3723L187.634 30.7168H189.591C190.32 30.7168 190.874 30.5415 191.253 30.1909C191.631 29.8262 191.884 29.2511 192.01 28.4657C192.15 27.6662 192.221 26.6143 192.221 25.3099H193.062V31.5584H184.373Z" fill="black"/>
<path d="M177.049 32C176.039 32 175.169 31.6915 174.44 31.0743C173.711 30.4432 173.114 29.5876 172.652 28.5076C172.189 27.4276 171.852 26.2003 171.642 24.8258C171.431 23.4373 171.326 21.9926 171.326 20.4918C171.326 18.6124 171.48 16.9783 171.789 15.5898C172.098 14.1872 172.518 13.0301 173.051 12.1184C173.584 11.1927 174.187 10.5054 174.861 10.0566C175.534 9.59373 176.235 9.3623 176.965 9.3623C177.806 9.3623 178.549 9.6288 179.195 10.1618C179.84 10.6807 180.373 11.389 180.794 12.2867C181.228 13.1703 181.551 14.1732 181.761 15.2952C181.972 16.4173 182.077 17.5744 182.077 18.7666C182.077 19.0331 182.077 19.2926 182.077 19.5451C182.077 19.7835 182.07 20.036 182.056 20.3025H174.23V19.4609H178.942C178.942 17.5394 178.886 15.8913 178.774 14.5168C178.662 13.1282 178.458 12.0623 178.164 11.3189C177.883 10.5755 177.484 10.2039 176.965 10.2039C176.46 10.2039 176.025 10.5615 175.66 11.2768C175.295 11.9922 175.015 13.0792 174.819 14.5378C174.622 15.9825 174.524 17.8199 174.524 20.05C174.524 21.5508 174.552 22.9674 174.608 24.2998C174.678 25.6183 174.812 26.7894 175.008 27.8133C175.204 28.8232 175.499 29.6156 175.892 30.1907C176.284 30.7658 176.803 31.0533 177.448 31.0533C178.444 31.0533 179.23 30.7798 179.805 30.2328C180.38 29.6858 180.766 29.1107 180.962 28.5076L181.677 28.9494C181.397 29.7629 180.857 30.4782 180.057 31.0954C179.272 31.6985 178.269 32 177.049 32Z" fill="black"/>
<path d="M158.683 31.5582V30.7167H160.66V10.3722H158.683V9.53062H163.732L163.795 11.929C163.823 11.7467 163.949 11.4522 164.174 11.0454C164.412 10.6387 164.742 10.26 165.163 9.90931C165.597 9.54464 166.116 9.3623 166.719 9.3623C167.421 9.3623 167.996 9.61477 168.445 10.1197C168.893 10.6106 169.23 11.2698 169.454 12.0973C169.693 12.9249 169.812 13.8436 169.812 14.8534C169.812 15.5267 169.693 16.0526 169.454 16.4313C169.23 16.796 168.9 16.9783 168.466 16.9783C168.045 16.9783 167.715 16.81 167.477 16.4734C167.252 16.1228 167.14 15.6739 167.14 15.1269C167.14 14.7763 167.196 14.4677 167.309 14.2012C167.435 13.9207 167.554 13.6472 167.666 13.3807C167.778 13.1002 167.834 12.7846 167.834 12.434C167.834 11.7046 167.701 11.1716 167.435 10.835C167.182 10.4984 166.853 10.3301 166.446 10.3301C165.927 10.3301 165.464 10.5826 165.057 11.0875C164.665 11.5924 164.356 12.2236 164.132 12.981C163.921 13.7384 163.816 14.4958 163.816 15.2532V30.7167H165.857V31.5582H158.683Z" fill="black"/>
<path d="M149.886 32C149.087 32 148.357 31.8107 147.698 31.432C147.039 31.0533 146.52 30.4712 146.141 29.6858C145.763 28.9003 145.573 27.9045 145.573 26.6983C145.573 25.3658 145.819 24.2648 146.31 23.3952C146.815 22.5256 147.432 21.7962 148.161 21.2071C148.904 20.604 149.648 20.071 150.391 19.6082C151.134 19.1313 151.752 18.6334 152.243 18.1144C152.747 17.5955 153 16.9643 153 16.2209C153 15.155 152.93 14.1732 152.79 13.2755C152.649 12.3779 152.404 11.6625 152.053 11.1296C151.703 10.5826 151.205 10.3091 150.559 10.3091C149.886 10.3091 149.297 10.5545 148.792 11.0454C148.301 11.5363 148.056 12.1114 148.056 12.7706C148.056 13.0932 148.105 13.3737 148.203 13.6121C148.315 13.8506 148.413 14.096 148.498 14.3485C148.596 14.5869 148.645 14.8815 148.645 15.2321C148.645 15.7371 148.533 16.1578 148.308 16.4945C148.084 16.8171 147.747 16.9783 147.298 16.9783C146.85 16.9783 146.513 16.789 146.289 16.4103C146.064 16.0316 145.952 15.5056 145.952 14.8324C145.952 13.8366 146.162 12.9249 146.583 12.0973C147.018 11.2698 147.621 10.6106 148.392 10.1197C149.178 9.61477 150.076 9.3623 151.085 9.3623C152.081 9.3623 152.958 9.61477 153.715 10.1197C154.473 10.6106 155.069 11.382 155.504 12.434C155.938 13.4719 156.156 14.8254 156.156 16.4945V29.244C156.156 29.819 156.226 30.2188 156.366 30.4432C156.52 30.6676 156.724 30.7798 156.976 30.7798C157.173 30.7798 157.355 30.7377 157.523 30.6536C157.706 30.5554 157.839 30.4642 157.923 30.3801L158.365 31.0954C158.211 31.2637 157.923 31.425 157.502 31.5793C157.081 31.7476 156.577 31.8317 155.987 31.8317C155.468 31.8317 155.006 31.7476 154.599 31.5793C154.192 31.411 153.87 31.1585 153.631 30.8219C153.393 30.4853 153.259 30.0715 153.231 29.5806C153.161 29.8751 153 30.2117 152.747 30.5904C152.495 30.9691 152.137 31.2987 151.674 31.5793C151.212 31.8598 150.616 32 149.886 32ZM150.833 30.6746C151.254 30.6746 151.625 30.5203 151.948 30.2117C152.285 29.8892 152.544 29.5034 152.726 29.0546C152.909 28.6058 153 28.185 153 27.7923V18.2196C152.958 18.6124 152.726 19.0331 152.306 19.482C151.885 19.9168 151.401 20.4287 150.854 21.0178C150.321 21.5929 149.851 22.3082 149.444 23.1638C149.038 24.0053 148.834 25.0362 148.834 26.2565C148.834 27.659 148.982 28.746 149.276 29.5175C149.585 30.2889 150.104 30.6746 150.833 30.6746Z" fill="black"/>
<path d="M138.142 31.6425L134.124 10.3723H132.462V9.53076H139.005V10.3723H137.49L139.889 24.7418L142.287 10.3723H140.793V9.53076H144.791V10.3723H143.234L139.405 31.6425H138.142Z" fill="black"/>
<path d="M125.282 31.5582V30.7166H127.092V0.841553H125.282V0H130.226V30.7166H132.036V31.5582H125.282Z" fill="black"/>
<path d="M110.782 31.5582V30.7166H112.613L116.862 2.04077H118.251L122.648 30.7166H124.584V31.5582H117.388V30.7166H119.219L116.379 9.88824H116.484L113.517 30.7166H115.179V31.5582H110.782ZM114.001 24.7206V23.9001H118.924V24.7206H114.001Z" fill="black"/>
<path fill-rule="evenodd" clip-rule="evenodd" d="M101.021 17.4563C100.917 17.4623 100.811 17.4701 100.704 17.4798C99.2897 17.607 98.1486 18.054 97.2806 18.8206C96.426 19.5861 96.0544 20.5875 96.1657 21.825C96.277 23.0624 96.8039 23.9381 97.7464 24.4521C98.6305 24.9342 99.7221 25.1343 101.021 25.0522V24.9309C100.1 24.9734 99.3287 24.755 98.7082 24.2758C98.037 23.7573 97.6479 22.9042 97.541 21.7162C97.4333 20.5184 97.6863 19.5575 98.3002 18.8337C98.9131 18.1 99.7315 17.687 100.755 17.5949C100.845 17.5868 100.934 17.5811 101.021 17.5777V17.4563Z" fill="#4F6A5C"/>
<path fill-rule="evenodd" clip-rule="evenodd" d="M104.567 20.2099C105.137 22.938 103.387 25.6115 100.659 26.1812C97.931 26.7509 95.2575 25.0011 94.6878 22.273C94.1181 19.5449 95.8679 16.8714 98.596 16.3017C101.324 15.732 103.998 17.4817 104.567 20.2099ZM100.315 24.5346C102.134 24.1548 103.301 22.3725 102.921 20.5537C102.541 18.7349 100.759 17.5684 98.9399 17.9483C97.1211 18.3281 95.9546 20.1104 96.3344 21.9291C96.7142 23.7479 98.4965 24.9144 100.315 24.5346Z" fill="#2A2927"/>
<path d="M72.8223 31.5582V30.7167H74.821V10.3722H72.8223V9.53062H77.9347V12.2867C78.0609 11.8799 78.2713 11.4522 78.5659 11.0033C78.8604 10.5405 79.2461 10.1548 79.723 9.8462C80.2139 9.5236 80.803 9.3623 81.4902 9.3623C82.1495 9.3623 82.7806 9.5236 83.3837 9.8462C84.0009 10.1688 84.5058 10.7929 84.8985 11.7187C85.3053 12.6303 85.5087 13.9908 85.5087 15.8002V30.7167H87.4442V31.5582H80.6697V30.7167H82.3528V16.1789C82.3528 14.2433 82.1986 12.8407 81.89 11.9711C81.5814 11.0875 81.0905 10.6457 80.4173 10.6457C80.0947 10.6457 79.7861 10.7859 79.4916 11.0664C79.197 11.347 78.9375 11.7116 78.7131 12.1605C78.4887 12.5953 78.3064 13.0651 78.1661 13.5701C78.0399 14.061 77.9768 14.5238 77.9768 14.9586V30.7167H79.6599V31.5582H72.8223Z" fill="#648372"/>
<path d="M66.3378 32C65.3279 32 64.4583 31.6915 63.729 31.0743C62.9996 30.4432 62.4035 29.5876 61.9407 28.5076C61.4778 27.4276 61.1412 26.2003 60.9308 24.8258C60.7204 23.4373 60.6152 21.9926 60.6152 20.4918C60.6152 18.6124 60.7695 16.9783 61.0781 15.5898C61.3867 14.1872 61.8074 13.0301 62.3404 12.1184C62.8734 11.1927 63.4765 10.5054 64.1498 10.0566C64.823 9.59373 65.5243 9.3623 66.2536 9.3623C67.0952 9.3623 67.8386 9.6288 68.4837 10.1618C69.1289 10.6807 69.6619 11.389 70.0827 12.2867C70.5175 13.1703 70.8401 14.1732 71.0505 15.2952C71.2609 16.4173 71.3661 17.5744 71.3661 18.7666C71.3661 19.0331 71.3661 19.2926 71.3661 19.5451C71.3661 19.7835 71.359 20.036 71.345 20.3025H63.5186V19.4609H68.2313C68.2313 17.5394 68.1752 15.8913 68.063 14.5168C67.9508 13.1282 67.7474 12.0623 67.4528 11.3189C67.1723 10.5755 66.7726 10.2039 66.2536 10.2039C65.7487 10.2039 65.3139 10.5615 64.9492 11.2768C64.5846 11.9922 64.304 13.0792 64.1077 14.5378C63.9113 15.9825 63.8131 17.8199 63.8131 20.05C63.8131 21.5508 63.8412 22.9674 63.8973 24.2998C63.9674 25.6183 64.1007 26.7894 64.297 27.8133C64.4934 28.8232 64.7879 29.6156 65.1807 30.1907C65.5734 30.7658 66.0923 31.0533 66.7375 31.0533C67.7334 31.0533 68.5188 30.7798 69.0939 30.2328C69.6689 29.6858 70.0546 29.1107 70.251 28.5076L70.9663 28.9494C70.6858 29.7629 70.1458 30.4782 69.3463 31.0954C68.5609 31.6985 67.558 32 66.3378 32Z" fill="#648372"/>
<path d="M38.4932 31.5581V30.7166H40.3446V10.3721H38.4932V9.53053H43.4583V12.5812C43.5285 12.2165 43.6897 11.7887 43.9422 11.2978C44.1947 10.7929 44.5664 10.351 45.0573 9.97235C45.5622 9.59365 46.2004 9.4043 46.9718 9.4043C47.7572 9.4043 48.4024 9.60767 48.9074 10.0144C49.4123 10.4071 49.791 10.891 50.0435 11.4661C50.2959 12.0412 50.4292 12.5882 50.4432 13.1071C50.5554 12.5461 50.7658 11.9851 51.0744 11.424C51.3829 10.849 51.8037 10.3721 52.3367 9.99338C52.8837 9.60066 53.5499 9.4043 54.3354 9.4043C55.5416 9.4043 56.4533 9.90222 57.0704 10.8981C57.7016 11.8939 58.0172 13.1702 58.0172 14.7271V30.7166H59.7423V31.5581H53.2414V30.7166H54.8613V17.1676C54.8613 15.8352 54.8263 14.6991 54.7561 13.7593C54.7 12.8196 54.5458 12.0973 54.2933 11.5923C54.0549 11.0874 53.6621 10.8349 53.1151 10.8349C52.6242 10.8349 52.1964 11.1014 51.8318 11.6344C51.4811 12.1534 51.2076 12.7986 51.0112 13.57C50.8149 14.3274 50.7097 15.0778 50.6957 15.8211V30.7166H52.3156V31.5581H45.9619V30.7166H47.5398V17.1676C47.5398 15.1759 47.4487 13.6261 47.2663 12.518C47.084 11.396 46.5861 10.8349 45.7726 10.8349C45.2817 10.8349 44.8679 11.1084 44.5313 11.6554C44.1947 12.1884 43.9422 12.8406 43.7739 13.6121C43.6056 14.3835 43.5144 15.1268 43.5004 15.8422V30.7166H45.0783V31.5581H38.4932Z" fill="#648372"/>
<path d="M26.249 31.5582V30.7167H28.2267V10.3722H26.249V9.53062H31.2983L31.3614 11.929C31.3895 11.7467 31.5157 11.4522 31.7401 11.0454C31.9786 10.6387 32.3082 10.26 32.729 9.90931C33.1638 9.54464 33.6827 9.3623 34.2858 9.3623C34.9871 9.3623 35.5622 9.61477 36.011 10.1197C36.4598 10.6106 36.7965 11.2698 37.0209 12.0973C37.2593 12.9249 37.3785 13.8436 37.3785 14.8534C37.3785 15.5267 37.2593 16.0526 37.0209 16.4313C36.7965 16.796 36.4669 16.9783 36.0321 16.9783C35.6113 16.9783 35.2817 16.81 35.0432 16.4734C34.8188 16.1228 34.7066 15.6739 34.7066 15.1269C34.7066 14.7763 34.7627 14.4677 34.8749 14.2012C35.0012 13.9207 35.1204 13.6472 35.2326 13.3807C35.3448 13.1002 35.4009 12.7846 35.4009 12.434C35.4009 11.7046 35.2677 11.1716 35.0012 10.835C34.7487 10.4984 34.4191 10.3301 34.0123 10.3301C33.4934 10.3301 33.0305 10.5826 32.6238 11.0875C32.2311 11.5924 31.9225 12.2236 31.6981 12.981C31.4877 13.7384 31.3825 14.4958 31.3825 15.2532V30.7167H33.4233V31.5582H26.249Z" fill="#648372"/>
<path d="M17.101 32C16.3016 32 15.5722 31.8107 14.913 31.432C14.2538 31.0533 13.7348 30.4712 13.3561 29.6858C12.9774 28.9003 12.7881 27.9045 12.7881 26.6983C12.7881 25.3658 13.0335 24.2648 13.5244 23.3952C14.0294 22.5256 14.6465 21.7962 15.3759 21.2071C16.1192 20.604 16.8626 20.071 17.606 19.6082C18.3493 19.1313 18.9665 18.6334 19.4574 18.1144C19.9623 17.5955 20.2148 16.9643 20.2148 16.2209C20.2148 15.155 20.1447 14.1732 20.0044 13.2755C19.8641 12.3779 19.6187 11.6625 19.268 11.1296C18.9174 10.5826 18.4195 10.3091 17.7743 10.3091C17.101 10.3091 16.512 10.5545 16.007 11.0454C15.5161 11.5363 15.2707 12.1114 15.2707 12.7706C15.2707 13.0932 15.3198 13.3737 15.4179 13.6121C15.5301 13.8506 15.6283 14.096 15.7125 14.3485C15.8107 14.5869 15.8598 14.8815 15.8598 15.2321C15.8598 15.7371 15.7475 16.1578 15.5231 16.4945C15.2987 16.8171 14.9621 16.9783 14.5133 16.9783C14.0644 16.9783 13.7278 16.789 13.5034 16.4103C13.279 16.0316 13.1668 15.5056 13.1668 14.8324C13.1668 13.8366 13.3772 12.9249 13.7979 12.0973C14.2328 11.2698 14.8359 10.6106 15.6073 10.1197C16.3927 9.61477 17.2904 9.3623 18.3002 9.3623C19.2961 9.3623 20.1727 9.61477 20.9301 10.1197C21.6875 10.6106 22.2836 11.382 22.7184 12.434C23.1532 13.4719 23.3706 14.8254 23.3706 16.4945V29.244C23.3706 29.819 23.4407 30.2188 23.581 30.4432C23.7353 30.6676 23.9386 30.7798 24.1911 30.7798C24.3875 30.7798 24.5698 30.7377 24.7381 30.6536C24.9205 30.5554 25.0537 30.4642 25.1379 30.3801L25.5797 31.0954C25.4254 31.2637 25.1379 31.425 24.7171 31.5793C24.2963 31.7476 23.7914 31.8317 23.2023 31.8317C22.6833 31.8317 22.2205 31.7476 21.8137 31.5793C21.407 31.411 21.0844 31.1585 20.8459 30.8219C20.6075 30.4853 20.4743 30.0715 20.4462 29.5806C20.3761 29.8751 20.2148 30.2117 19.9623 30.5904C19.7098 30.9691 19.3522 31.2987 18.8893 31.5793C18.4265 31.8598 17.8304 32 17.101 32ZM18.0478 30.6746C18.4686 30.6746 18.8402 30.5203 19.1628 30.2117C19.4995 29.8892 19.7589 29.5034 19.9413 29.0546C20.1236 28.6058 20.2148 28.185 20.2148 27.7923V18.2196C20.1727 18.6124 19.9413 19.0331 19.5205 19.482C19.0997 19.9168 18.6158 20.4287 18.0688 21.0178C17.5358 21.5929 17.066 22.3082 16.6592 23.1638C16.2525 24.0053 16.0491 25.0362 16.0491 26.2565C16.0491 27.659 16.1964 28.746 16.4909 29.5175C16.7995 30.2889 17.3184 30.6746 18.0478 30.6746Z" fill="#648372"/>
<path d="M6.69034 31.979C4.72672 31.979 3.12075 30.6957 1.87245 28.1289C0.624151 25.5622 0 21.8103 0 16.8732C0 15.0639 0.133246 13.2615 0.399737 11.4662C0.680254 9.65689 1.10103 8.01586 1.66206 6.54315C2.2231 5.05641 2.93141 3.87122 3.78698 2.9876C4.65659 2.08994 5.67346 1.64111 6.83761 1.64111C7.66513 1.64111 8.37344 1.92163 8.96252 2.48266C9.56564 3.0437 10.0285 3.75201 10.3511 4.60758C10.6737 5.44913 10.835 6.2977 10.835 7.15328C10.835 7.85457 10.7228 8.38755 10.4984 8.75222C10.2739 9.10287 9.93732 9.27819 9.48849 9.27819C8.99759 9.27819 8.63993 9.1169 8.41552 8.7943C8.20513 8.47171 8.09993 8.01587 8.09993 7.42678C8.09993 7.02003 8.16305 6.66938 8.28928 6.37484C8.42954 6.0803 8.56279 5.77874 8.68902 5.47017C8.82928 5.1616 8.89941 4.78992 8.89941 4.35512C8.89941 3.86421 8.74512 3.45045 8.43655 3.11383C8.12799 2.76318 7.77033 2.58786 7.36358 2.58786C6.80254 2.58786 6.30462 2.90344 5.86982 3.53461C5.43502 4.15174 5.06334 4.98628 4.75477 6.03822C4.4462 7.07613 4.18672 8.22625 3.97633 9.48858C3.77997 10.7369 3.6327 12.0062 3.53452 13.2966C3.43634 14.573 3.38725 15.7511 3.38725 16.8311C3.38725 18.3599 3.44335 19.8327 3.55556 21.2493C3.66776 22.6519 3.82205 23.9492 4.01841 25.1414C4.2288 26.3336 4.48126 27.3786 4.77581 28.2762C5.08437 29.1598 5.42801 29.8471 5.80671 30.338C6.19943 30.8289 6.62722 31.0744 7.09007 31.0744C7.62305 31.0744 8.09993 30.885 8.52071 30.5063C8.95551 30.1136 9.32018 29.6367 9.61473 29.0757C9.90927 28.5147 10.1267 27.9677 10.2669 27.4347L11.0454 27.8554C10.7929 28.5848 10.4633 29.265 10.0565 29.8962C9.64979 30.5133 9.1659 31.0183 8.60487 31.411C8.05786 31.7897 7.41968 31.979 6.69034 31.979Z" fill="#648372"/>
</svg>
